<svg xmlns="http://www.w3.org/2000/svg" viewBox="0 0 64 64" width="512" height="512">
  <defs>
    <linearGradient id="g" x1="0" y1="0" x2="1" y2="1">
      <stop offset="0%" stop-color="#E8C766"/>
      <stop offset="52%" stop-color="#C9A227"/>
      <stop offset="100%" stop-color="#8C6D14"/>
    </linearGradient>
  </defs>
  <rect width="64" height="64" fill="#0A0E0C"/>
  <path d="M32 12 53 18.7v15.1c0 10.2-8.1 17.1-21 20.4C19.1 50.9 11 44 11 33.8V18.7L32 12Z" fill="#0F7A46"/>
  <path d="M32 21.5c6.2 0 11.2 5 11.2 11.2S38.2 43.9 32 43.9 20.8 38.9 20.8 32.7 25.8 21.5 32 21.5Z" fill="#0A0E0C"/>
  <path d="M32 26.4 36.7 29.8 34.8 35.3h-5.6L27.3 29.8 32 26.4Z" fill="url(#g)"/>
  <path d="M32 21.5v4.9M43.2 32.7l-6.5-2.9M37.4 42l-2.6-6.7M26.6 42l2.6-6.7M20.8 32.7l6.5-2.9" stroke="url(#g)" stroke-width="1.5" stroke-linecap="round"/>
</svg>
